<svg xmlns="http://www.w3.org/2000/svg" width="18.265" height="18.261" viewBox="0 0 18.265 18.261"><path d="M9.129,6.686a4.682,4.682,0,1,0,4.682,4.682A4.674,4.674,0,0,0,9.129,6.686Zm0,7.726a3.044,3.044,0,1,1,3.044-3.044A3.049,3.049,0,0,1,9.129,14.412Zm5.965-7.917A1.092,1.092,0,1,1,14,5.4,1.089,1.089,0,0,1,15.094,6.495ZM18.2,7.6A5.4,5.4,0,0,0,16.72,3.777,5.44,5.44,0,0,0,12.894,2.3c-1.508-.086-6.026-.086-7.534,0A5.432,5.432,0,0,0,1.534,3.773,5.422,5.422,0,0,0,.059,7.6c-.086,1.508-.086,6.026,0,7.534a5.4,5.4,0,0,0,1.475,3.826A5.447,5.447,0,0,0,5.36,20.434c1.508.086,6.026.086,7.534,0a5.4,5.4,0,0,0,3.826-1.475A5.44,5.44,0,0,0,18.2,15.133c.086-1.508.086-6.022,0-7.53Zm-1.948,9.148a3.082,3.082,0,0,1-1.736,1.736c-1.2.477-4.054.367-5.383.367s-4.185.106-5.383-.367a3.082,3.082,0,0,1-1.736-1.736c-.477-1.2-.367-4.054-.367-5.383s-.106-4.185.367-5.383A3.082,3.082,0,0,1,3.746,4.25c1.2-.477,4.054-.367,5.383-.367s4.185-.106,5.383.367a3.082,3.082,0,0,1,1.736,1.736c.477,1.2.367,4.054.367,5.383S16.724,15.553,16.248,16.751Z" transform="translate(0.005 -2.238)" fill="#ff581a"/></svg>