<svg xmlns="http://www.w3.org/2000/svg" width="18.261" height="18.261" viewBox="0 0 18.261 18.261"><path d="M16.956,2.25H1.3A1.31,1.31,0,0,0,0,3.567V19.194a1.31,1.31,0,0,0,1.3,1.317H16.956a1.313,1.313,0,0,0,1.3-1.317V3.567A1.313,1.313,0,0,0,16.956,2.25ZM5.519,17.9H2.812V9.187H5.523V17.9ZM4.166,8A1.569,1.569,0,1,1,5.735,6.428,1.57,1.57,0,0,1,4.166,8Zm11.5,9.9H12.958V13.663c0-1.011-.02-2.311-1.406-2.311-1.41,0-1.626,1.1-1.626,2.238V17.9H7.219V9.187h2.6v1.19h.037a2.851,2.851,0,0,1,2.564-1.406c2.739,0,3.249,1.806,3.249,4.153Z" transform="translate(0 -2.25)" fill="#ff581a"/></svg>