<?xml version="1.0" encoding="utf-8"?>
<!-- Generator: Adobe Illustrator 26.5.0, SVG Export Plug-In . SVG Version: 6.00 Build 0)  -->
<svg version="1.1" id="Calque_1" xmlns="http://www.w3.org/2000/svg" xmlns:xlink="http://www.w3.org/1999/xlink" x="0px" y="0px"
	 viewBox="0 0 18.26 18.26" style="enable-background:new 0 0 18.26 18.26;" xml:space="preserve">
<style type="text/css">
	.st0{fill:#FFFFFF;}
</style>
<g id="RÉSEAUX" transform="translate(-5724.5 -839.25)">
	<path id="Icon_awesome-instagram_00000150786201989909045720000014695594563256011147_" class="st0" d="M5733.63,843.7
		c-2.59,0-4.68,2.1-4.68,4.68c0,2.59,2.1,4.68,4.68,4.68s4.68-2.1,4.68-4.68c0-2.58-2.08-4.68-4.67-4.68
		C5733.64,843.7,5733.63,843.7,5733.63,843.7z M5733.63,851.43c-1.68,0-3.04-1.36-3.04-3.04s1.36-3.04,3.04-3.04
		s3.04,1.36,3.04,3.04c0,0,0,0,0,0C5736.67,850.06,5735.31,851.42,5733.63,851.43z M5739.59,843.51c0,0.6-0.49,1.09-1.09,1.09
		c-0.6,0-1.09-0.49-1.09-1.09c0-0.6,0.49-1.09,1.09-1.09c0.6,0,1.09,0.48,1.09,1.08C5739.59,843.5,5739.59,843.5,5739.59,843.51z
		 M5742.7,844.61c0.03-1.42-0.5-2.79-1.48-3.82c-1.03-0.97-2.41-1.5-3.83-1.48c-1.51-0.09-6.03-0.09-7.53,0
		c-1.42-0.03-2.79,0.5-3.83,1.47c-0.97,1.03-1.5,2.41-1.48,3.83c-0.09,1.51-0.09,6.03,0,7.53c-0.03,1.42,0.5,2.79,1.48,3.83
		c1.03,0.97,2.41,1.5,3.83,1.47c1.51,0.09,6.03,0.09,7.53,0c1.42,0.03,2.79-0.5,3.83-1.47c0.97-1.03,1.5-2.41,1.48-3.83
		C5742.78,850.64,5742.78,846.12,5742.7,844.61L5742.7,844.61z M5740.75,853.76c-0.31,0.79-0.94,1.42-1.74,1.74
		c-1.2,0.48-4.05,0.37-5.38,0.37c-1.33,0-4.19,0.11-5.38-0.37c-0.79-0.31-1.42-0.94-1.74-1.74c-0.48-1.2-0.37-4.05-0.37-5.38
		c0-1.33-0.11-4.18,0.37-5.38c0.31-0.79,0.94-1.42,1.73-1.73c1.2-0.48,4.05-0.37,5.38-0.37s4.19-0.11,5.38,0.37
		c0.79,0.31,1.42,0.94,1.74,1.74c0.48,1.2,0.37,4.05,0.37,5.38S5741.22,852.57,5740.75,853.76L5740.75,853.76z"/>
</g>
</svg>
