<?xml version="1.0" encoding="utf-8"?>
<!-- Generator: Adobe Illustrator 26.5.0, SVG Export Plug-In . SVG Version: 6.00 Build 0)  -->
<svg version="1.1" id="Calque_1" xmlns="http://www.w3.org/2000/svg" xmlns:xlink="http://www.w3.org/1999/xlink" x="0px" y="0px"
	 viewBox="0 0 18.26 18.26" style="enable-background:new 0 0 18.26 18.26;" xml:space="preserve">
<style type="text/css">
	.st0{fill:#FF581A;}
</style>
<path id="Icon_awesome-instagram" class="st0" d="M9.13,4.45c-2.59,0-4.68,2.1-4.68,4.68s2.1,4.68,4.68,4.68s4.68-2.1,4.68-4.68
	c0-2.58-2.08-4.68-4.67-4.68C9.14,4.45,9.13,4.45,9.13,4.45z M9.13,12.18c-1.68,0-3.04-1.36-3.04-3.04c0-1.68,1.36-3.04,3.04-3.04
	c1.68,0,3.04,1.36,3.04,3.04c0,0,0,0,0,0C12.17,10.81,10.81,12.17,9.13,12.18z M15.09,4.26c0,0.6-0.49,1.09-1.09,1.09
	c-0.6,0-1.09-0.49-1.09-1.09c0-0.6,0.49-1.09,1.09-1.09c0.6,0,1.09,0.48,1.09,1.08C15.09,4.25,15.09,4.25,15.09,4.26z M18.2,5.36
	c0.03-1.42-0.5-2.79-1.48-3.82c-1.03-0.97-2.41-1.5-3.83-1.48c-1.51-0.09-6.03-0.09-7.53,0c-1.42-0.03-2.79,0.5-3.83,1.47
	c-0.97,1.03-1.5,2.41-1.48,3.83c-0.09,1.51-0.09,6.03,0,7.53c-0.03,1.42,0.5,2.79,1.48,3.83c1.03,0.97,2.41,1.5,3.83,1.47
	c1.51,0.09,6.03,0.09,7.53,0c1.42,0.03,2.79-0.5,3.83-1.48c0.97-1.03,1.5-2.41,1.48-3.83C18.28,11.39,18.28,6.87,18.2,5.36
	L18.2,5.36z M16.25,14.51c-0.31,0.79-0.94,1.42-1.74,1.74c-1.2,0.48-4.05,0.37-5.38,0.37s-4.18,0.11-5.38-0.37
	c-0.79-0.31-1.42-0.94-1.74-1.74c-0.48-1.2-0.37-4.05-0.37-5.38S1.54,4.94,2.01,3.75c0.31-0.79,0.94-1.42,1.73-1.73
	c1.2-0.48,4.05-0.37,5.38-0.37s4.18-0.11,5.38,0.37c0.79,0.31,1.42,0.94,1.74,1.74c0.48,1.2,0.37,4.05,0.37,5.38
	S16.72,13.32,16.25,14.51L16.25,14.51z"/>
</svg>
