<?xml version="1.0" encoding="utf-8"?>
<!-- Generator: Adobe Illustrator 26.5.0, SVG Export Plug-In . SVG Version: 6.00 Build 0)  -->
<svg version="1.1" id="Calque_1" xmlns="http://www.w3.org/2000/svg" xmlns:xlink="http://www.w3.org/1999/xlink" x="0px" y="0px"
	 viewBox="0 0 18.26 18.26" style="enable-background:new 0 0 18.26 18.26;" xml:space="preserve">
<style type="text/css">
	.st0{fill:#FFFFFF;}
</style>
<path id="Icon_awesome-linkedin" class="st0" d="M16.96,0H1.3C0.58,0.01,0,0.59,0,1.32v15.63c0,0.72,0.58,1.31,1.3,1.32h15.66
	c0.72-0.01,1.3-0.6,1.3-1.32V1.32C18.26,0.6,17.68,0.01,16.96,0z M5.52,15.65H2.81V6.94h2.71L5.52,15.65L5.52,15.65z M4.17,5.75
	c-0.87,0-1.57-0.7-1.57-1.57s0.7-1.57,1.57-1.57c0.87,0,1.57,0.7,1.57,1.57C5.74,5.05,5.03,5.75,4.17,5.75
	C4.17,5.75,4.17,5.75,4.17,5.75z M15.67,15.65h-2.71v-4.24c0-1.01-0.02-2.31-1.41-2.31c-1.41,0-1.63,1.1-1.63,2.24v4.31H7.22V6.94
	h2.6v1.19h0.04c0.53-0.9,1.52-1.44,2.56-1.41c2.74,0,3.25,1.81,3.25,4.15L15.67,15.65z"/>
</svg>
