<?xml version="1.0" encoding="utf-8"?>
<!-- Generator: Adobe Illustrator 26.5.0, SVG Export Plug-In . SVG Version: 6.00 Build 0)  -->
<svg version="1.1" id="Calque_1" xmlns="http://www.w3.org/2000/svg" xmlns:xlink="http://www.w3.org/1999/xlink" x="0px" y="0px"
	 viewBox="0 0 53 52" style="enable-background:new 0 0 53 52;" xml:space="preserve">
<style type="text/css">
	.st0{fill:#FF581A;}
	.st1{fill:#FFFFFF;}
	.st2{fill:none;}
</style>
<g>
	<ellipse class="st0" cx="26.5" cy="26" rx="26.5" ry="26"/>
</g>
<path class="st1" d="M36.72,26.68c0-1.03-0.02-1.35-0.02-1.35h-9.52v-9.54h-1.35v9.54h-9.54v1.35h9.54v9.54
	c1.03,0,1.35-0.02,1.35-0.02v-9.52H36.72z"/>
<g>
	<path class="st2" d="M26.5,0C11.86,0,0,11.64,0,26c0,14.36,11.86,26,26.5,26C41.13,52,53,40.36,53,26C53,11.64,41.13,0,26.5,0z
		 M26.5,51.5c-14.36,0-26-11.42-26-25.5c0-14.08,11.64-25.5,26-25.5s26,11.42,26,25.5C52.5,40.08,40.86,51.5,26.5,51.5z"/>
</g>
</svg>
