<?xml version="1.0" encoding="utf-8"?>
<!-- Generator: Adobe Illustrator 26.5.0, SVG Export Plug-In . SVG Version: 6.00 Build 0)  -->
<svg version="1.1" id="Calque_1" xmlns="http://www.w3.org/2000/svg" xmlns:xlink="http://www.w3.org/1999/xlink" x="0px" y="0px"
	 viewBox="0 0 40.38 35.58" style="enable-background:new 0 0 40.38 35.58;" xml:space="preserve">
<style type="text/css">
	.st0{fill:#FFFFFF;}
</style>
<g>
	<path class="st0" d="M39.84,14.6c-0.97,2.73-1.49,3.49-2.05,3.49c-0.84,0-0.51-1.24,0.08-3.62l0.92-3.7
		c0.65-2.57,0.11-4.6-2.43-4.6c-1.24,0-2.22,0.84-3.19,2.89l-3.38,7.19l-0.46-0.24l4.11-14.52V0.75h-4.49v0.73h1.05l1,1.05
		l-2.7,10.9l-0.01,0c-1.06,2.65-3.62,4.38-6.47,4.36c-3.81,0-6.3-4.24-6.3-8.95c0-4.22,1.92-7.98,5.54-7.98c3.14,0,4.54,3,5.03,6.25
		h0.73V0.38h-0.73v1.16c-1.46-1.03-3.2-1.57-4.98-1.55c-4.65,0-8.3,4-8.3,9.74c0,4.92,3.43,9.44,8.47,9.44
		c2.45,0.1,4.72-0.95,6.27-2.7l-0.66,2.67h2.16l4.49-9.6c0.51-1.11,1.16-2.08,2.11-2.08c1.73,0,1.27,2.14,0.89,3.65l-1.05,4.19
		c-0.49,1.92-0.43,4.11,1.79,4.11c1.32,0,1.97-1.54,3.11-4.68L39.84,14.6z"/>
	<path class="st0" d="M32.89,34.25c-0.84,0-0.49-1.24,0.08-3.62l0.89-3.71c0.68-2.76,0.38-4.38-1.87-4.57
		c-1.41-0.11-2.14,0.68-3.19,2.87l-3.46,7.22l-0.49-0.27l1.68-5.25c0.9-2.81,0.27-4.38-1.7-4.57c-1.41-0.13-2.14,0.68-3.19,2.87
		l-3.46,7.22l-0.49-0.27l2.7-8.84V22.6h-4.52v0.73h1.08l1,1.05L15.43,34.6l-0.26,0l-3.89-7.49L9.55,26.6l0.11-0.51l0.16-0.03
		c2.37-0.12,4.27-1.99,4.43-4.35c0-3.08-2.08-4.76-6.6-4.76H0.16v0.73h1.08l1.24,1.08v14.77L1.24,34.6H0v0.73h7.22V34.6h-2.3v-7.82
		h3.54l4.43,8.55h2.48l0.01-0.03h2.03l4.62-9.6c0.54-1.14,1.16-2.08,1.92-2.08c1.33,0,0.89,2.03,0.49,3.65l-1.97,8.03h2.14
		l0.03-0.11l4.57-9.49c0.54-1.14,1.16-2.08,1.92-2.08c1.49,0,0.89,2.03,0.49,3.65l-1.03,4.19c-0.46,1.92-0.43,4.11,1.79,4.11
		c1.32,0,1.97-1.54,3.11-4.68l-0.54-0.14C33.97,33.49,33.45,34.25,32.89,34.25z M7.6,25.86H4.92v-8h2.6c3.03,0.03,4.19,1.08,4.19,4
		C11.71,24.81,10.14,25.86,7.6,25.86z"/>
</g>
</svg>
