<svg xmlns="http://www.w3.org/2000/svg" width="519.817" height="232.301" viewBox="0 0 519.817 232.301"><g transform="translate(-181.259 -668.821)"><path d="M242.68,732.436a13.112,13.112,0,0,0-5.591-1.141H224.3V761.25h1.341V750.786h11.444a12.928,12.928,0,0,0,5.591-1.16,9.208,9.208,0,0,0,3.868-3.332,9.447,9.447,0,0,0,1.406-5.255,9.56,9.56,0,0,0-1.406-5.274A8.96,8.96,0,0,0,242.68,732.436Zm1.428,15.018q-2.458,2.085-7.019,2.082H225.645V732.546h11.444q4.562,0,7.019,2.1t2.459,6.393Q246.568,745.377,244.108,747.454Z" transform="translate(96.066 139.426)" fill="#161615"/><path d="M255.355,745.512H234.209V731.295h-1.342V761.25h1.342V746.764h21.146V761.25H256.7V731.295h-1.342Z" transform="translate(115.176 139.425)" fill="#161615"/><path d="M263.871,733.054a15.688,15.688,0,0,0-14.957,0,13.721,13.721,0,0,0-5.229,5.368,18.263,18.263,0,0,0,0,16.314,13.679,13.679,0,0,0,5.229,5.368,15.666,15.666,0,0,0,14.957,0,13.756,13.756,0,0,0,5.206-5.368,18.263,18.263,0,0,0,0-16.314A13.8,13.8,0,0,0,263.871,733.054Zm4.111,21.107a11.488,11.488,0,0,1-4.583,4.828,15.507,15.507,0,0,1-14.016,0,11.461,11.461,0,0,1-4.605-4.828,18.471,18.471,0,0,1,0-15.183,11.468,11.468,0,0,1,4.605-4.8,15.452,15.452,0,0,1,14.016,0,11.5,11.5,0,0,1,4.583,4.8,18.471,18.471,0,0,1,0,15.183Z" transform="translate(135.03 139.118)" fill="#161615"/><path d="M264.422,731.295H251.5v1.251h12.92v28.7h1.342v-28.7h12.92v-1.251H264.422Z" transform="translate(156.764 139.425)" fill="#161615"/><path d="M282.712,733.054a15.681,15.681,0,0,0-14.953,0,13.729,13.729,0,0,0-5.232,5.368,18.263,18.263,0,0,0,0,16.314,13.687,13.687,0,0,0,5.232,5.368,15.659,15.659,0,0,0,14.953,0,13.764,13.764,0,0,0,5.21-5.368,18.262,18.262,0,0,0,0-16.314A13.806,13.806,0,0,0,282.712,733.054Zm4.114,21.107a11.488,11.488,0,0,1-4.583,4.828,15.507,15.507,0,0,1-14.016,0,11.442,11.442,0,0,1-4.605-4.828,18.471,18.471,0,0,1,0-15.183,11.449,11.449,0,0,1,4.605-4.8,15.452,15.452,0,0,1,14.016,0,11.5,11.5,0,0,1,4.583,4.8,18.471,18.471,0,0,1,0,15.183Z" transform="translate(177.078 139.118)" fill="#161615"/><path d="M291.526,732.453a15.331,15.331,0,0,0-6.37-1.3,14.383,14.383,0,0,0-7.378,1.9,13.511,13.511,0,0,0-5.142,5.368,18.657,18.657,0,0,0,0,16.314,13.47,13.47,0,0,0,5.142,5.368,14.387,14.387,0,0,0,7.378,1.9,17.125,17.125,0,0,0,4.67-.65,10.763,10.763,0,0,0,4.114-2.191,8.921,8.921,0,0,0,2.66-4.179h.133v6.574h1.121v-14.22H283.68v1.254h12.83v1.968a10.569,10.569,0,0,1-1.364,5.565,8.5,8.5,0,0,1-3.91,3.4,14.769,14.769,0,0,1-6.079,1.141,13.7,13.7,0,0,1-6.909-1.674,11.242,11.242,0,0,1-4.515-4.828,18.952,18.952,0,0,1,0-15.183,11.247,11.247,0,0,1,4.515-4.8,13.637,13.637,0,0,1,6.909-1.681q5.318,0,8.315,2.459a8.277,8.277,0,0,1,3,6.751v.449h1.386v-.449a9.255,9.255,0,0,0-1.723-5.588A11.274,11.274,0,0,0,291.526,732.453Z" transform="translate(199.742 139.118)" fill="#161615"/><path d="M296.943,749.467a4.77,4.77,0,0,0-2.078-1.183v-.136a11.606,11.606,0,0,0,4.941-1.005,8.263,8.263,0,0,0,3.439-2.883,7.747,7.747,0,0,0,1.277-4.473,7.923,7.923,0,0,0-1.3-4.583,8.279,8.279,0,0,0-3.555-2.905,12.432,12.432,0,0,0-5.119-1.005h-13.68V761.25h1.341V748.285h7.511a12.241,12.241,0,0,1,3.532.427,6.612,6.612,0,0,1,2.369,1.25,8.733,8.733,0,0,1,1.787,2.123l5.946,9.165h1.525l-6.263-9.747A11.459,11.459,0,0,0,296.943,749.467Zm-14.73-2.437V732.546h12.339a9.97,9.97,0,0,1,6.35,1.787,7.772,7.772,0,0,1,0,10.911,9.97,9.97,0,0,1-6.35,1.787Z" transform="translate(222.311 139.426)" fill="#161615"/><path d="M302.627,731.3,288.853,761.25h1.432l4.589-9.928h17.254l4.628,9.928h1.428L304.414,731.3Zm8.916,18.776H295.455l6.409-13.861,1.519-3.484h.136l1.564,3.484Z" transform="translate(240.123 139.426)" fill="#161615"/><path d="M317.412,732.436a13.107,13.107,0,0,0-5.588-1.141H299.036V761.25h1.341V750.786h11.447a12.923,12.923,0,0,0,5.588-1.16,9.208,9.208,0,0,0,3.868-3.332,9.448,9.448,0,0,0,1.406-5.255,9.561,9.561,0,0,0-1.406-5.274A8.96,8.96,0,0,0,317.412,732.436Zm1.432,15.018q-2.462,2.085-7.019,2.082H300.377V732.546h11.447q4.562,0,7.019,2.1t2.459,6.393Q321.3,745.377,318.843,747.454Z" transform="translate(262.849 139.426)" fill="#161615"/><path d="M330.09,745.512H308.942V731.295H307.6V761.25h1.343V746.764H330.09V761.25h1.34V731.295h-1.34Z" transform="translate(281.958 139.425)" fill="#161615"/><path d="M317.582,731.295h-.673V761.25h21.417V760H318.252v-13.19h19.4v-1.252h-19.4v-13.01h20.074v-1.251H317.582Z" transform="translate(302.736 139.425)" fill="#161615"/><g transform="translate(181.259 668.821)"><path d="M283.009,755.345H271.746V717.052H289.1l21.73,41.871h18.259l-.061-3.578h-7.068l-19.08-36.7-8.48-2.518.53-2.521.8-.132c12.455-1.454,21.73-10.6,21.73-21.33,0-15.105-10.2-23.32-32.33-23.32h-36.7V672.4h5.3l6.1,5.3v72.346l-6.1,5.3h-5.3v3.578h34.583Zm-11.263-82.018h12.72c14.84.132,20.538,5.3,20.538,19.61,0,14.443-7.685,19.607-20.14,19.607H271.746Z" transform="translate(-31.359 -668.821)" fill="#161615"/><path d="M307.912,671.614v-2.648H293.335L277.17,685.794l1.856,1.455Z" transform="translate(32.789 -668.498)" fill="#161615"/><path d="M300.649,742.092c11.4,0,19.746-7.023,23.721-19.878l-3.578-1.193c-2.786,8.083-9.275,13.916-16.165,13.916-11.663,0-20.143-7.818-20.143-28.355v-2.256h35.779l1.722-2.912c1.193-14.446-7.288-24.248-21.2-24.248-15.635,0-27.425,13.647-27.425,33.125C273.357,726.722,282.235,742.092,300.649,742.092Zm-.53-61.749c10.6,0,12.723,16.563,11.4,19.614v.795H284.881C286.342,688.558,292.567,680.343,300.119,680.343Z" transform="translate(24.281 -650.197)" fill="#161615"/><path d="M270.415,726.606c0-13.253-6.36-21.73-20.273-21.73-14.178,0-22.658,10.2-20.405,21.465l10.335-2.256c-1.06-9.805,3.313-16.033,10.2-16.033s9.54,5.171,9.54,21.469V732.7c-22,.133-35.51,7.685-35.51,21.469,0,9.672,8.48,15.635,16.563,15.635,10.6,0,16.033-8.083,18.285-12.061h2.65v10.736h17.093V764.9h-8.48Zm-10.6,10.335c0,10.995-2.518,25.573-15.768,25.573-4.638,0-8.613-3.581-8.613-9.408,0-10.07,9.938-16.563,24.38-16.563Z" transform="translate(-85.193 -588.355)" fill="#161615"/><path d="M250,714.163v36.044c0,14.969,10.07,18.683,18.153,18.683,10.6,0,16.828-8.083,19.61-15.238.133-.265.133-.53.265-.795h2.388v14.708h15.289l.019-3.581h-7.359v-58.7h-22v3.581h5.3l6.092,5.3V729.8c0,16.7-3.71,32.864-16.7,32.864-6.89,0-10.468-6.1-10.468-14.446V705.285h-22v3.581h5.3Z" transform="translate(-53.277 -587.443)" fill="#161615"/><path d="M309.044,757.812H311.7v10.733h39v-3.578h.087v-22.26c0-17.623,1.991-28.223,17.225-28.223h4.033a33.926,33.926,0,0,1,10.852-9.537H369.6c-11.4,0-16.3,9.4-18.819,16.3h-2.65V706.269H328.79v3.578h5.3l6.1,5.3v44.521l-6.1,5.3H320.31V726.675c0-13.25-6.36-21.73-20.276-21.73-14.178,0-22.658,10.2-20.4,21.465l10.332-2.253c-1.057-9.805,3.313-16.033,10.2-16.033s9.54,5.168,9.54,21.465v3.18c-21.992.132-35.51,7.685-35.51,21.465,0,9.676,8.48,15.635,16.563,15.635C301.359,769.87,306.792,761.787,309.044,757.812Zm-15.105,4.77c-4.634,0-8.613-3.578-8.613-9.408,0-10.07,9.941-16.563,24.38-16.563v.4C309.706,748.007,307.189,762.583,293.939,762.583Z" transform="translate(26.153 -588.204)" fill="#161615"/><path d="M389.966,718.2h-3.519c-.052.168-.087.356-.133.523-4.683,13.072-7.181,16.727-9.938,16.727-4.108,0-2.385-6.1.4-17.755l4.372-18.153c3.313-13.519,1.855-21.469-9.143-22.4-6.89-.527-10.468,3.312-15.635,14.048l-16.96,35.378-2.385-1.325,8.215-25.705c4.373-13.784,1.325-21.469-8.348-22.4-6.89-.659-10.468,3.312-15.635,14.048L304.3,726.577l-2.388-1.325,13.253-43.331v-3.578H293.029v3.578h5.3l4.9,5.168-13.25,53.531h10.6l22.658-47.035c2.65-5.568,5.7-10.2,9.408-10.2,6.493,0,4.373,9.938,2.382,17.888l-9.669,39.35h10.468l.133-.53,22.393-46.505c2.65-5.568,5.7-10.2,9.408-10.2,7.288,0,4.372,9.938,2.385,17.888L365.114,721.8c-2.253,9.408-2.12,20.143,8.745,20.143a7.511,7.511,0,0,0,5.5-2.534v27.05l2.12,4.372a38.282,38.282,0,0,0-16.7-3.71c-16.96.4-28.09,15.37-28.09,34.583,0,16.563,9.673,30.343,25.043,30.343,8.48,0,14.575-5.035,17.623-11.4l2.653.133v9.938h16.43V827.15h-8.48Zm-10.6,82.975c0,12.323-2.518,24.781-14.042,24.781-11.133,0-16.7-13.784-16.7-27.828,0-11.925,4.634-27.826,16.96-27.826,8.878,0,12.319,9.143,13.777,11.4Z" transform="translate(61.39 -650.386)" fill="#161615"/><path d="M303.768,766.265v-.032c-.1-3.555,1.357-7.207,2.844-10.891-4.185,1.231-7.478,20.2-16.223,20.2-5.979,0-7.271-5.042-7.271-12.184v-41.2h18.13v-4.234h-18.13V699.626h-2.682l-7.95,11.667v6.625l-13.864.065v3.587l8.176-.1,5.688,4.912v37.23c0,12.992,7.174,17.9,16.062,17.9a12.134,12.134,0,0,0,7.174-2.23,18.818,18.818,0,0,0,6.043-7.692A39.73,39.73,0,0,0,303.768,766.265Z" transform="translate(-8.609 -600.072)" fill="#161615"/><path d="M303.6,784.143c-4.108,0-2.518-6.1.4-17.755l4.505-18.153c3.18-12.591.53-22.525-11.925-22.525-6.1,0-10.865,4.1-15.635,14.178l-16.563,35.246-2.253-1.193,20.14-71.157v-3.577h-22v3.577h5.168l4.9,5.171-13.221,53.408-.032-.016c-3.578,8.881-13.683,21.385-31.71,21.385-18.683,0-30.873-20.806-30.873-43.861,0-20.67,9.408-39.091,27.163-39.091,15.37,0,22.26,14.711,24.645,30.611h3.578V697.4h-3.578v5.7a41.335,41.335,0,0,0-24.38-7.553c-22.79,0-40.678,19.61-40.678,47.7,0,24.115,16.828,46.243,41.473,46.243,14.3,0,24.183-5.688,30.682-13.143l-3.209,12.969h10.6l22-47.038c2.518-5.436,5.7-10.2,10.335-10.2,8.48,0,6.228,10.468,4.372,17.888l-5.168,20.534c-2.385,9.408-2.12,20.144,8.745,20.144,6.493,0,8.348-2.634,13.913-18-.1-3.568,1.37-7.22,2.87-10.875C313.263,765.292,306.386,784.143,303.6,784.143Z" transform="translate(-181.259 -609.189)" fill="#161615"/><path d="M361.745,676.735v3.594H367.1l5.888,5.058L359.069,722,357.459,726h-1.205V718.14L342.2,680.329h7.9v-3.594H320.653v3.594H326l6.16,5.326h.133l20.344,52.859-2.278,5.723c-2.808,6.79-6.955,9.589-16.188,9.589h-4.819v10.917h3.209c11.512,0,18.2-10.119,21.414-18.508l25.7-65.905h10.306v-3.594Z" transform="translate(129.834 -651.159)" fill="#161615"/></g></g></svg>