<?xml version="1.0" encoding="utf-8"?>
<!-- Generator: Adobe Illustrator 26.5.0, SVG Export Plug-In . SVG Version: 6.00 Build 0)  -->
<svg version="1.1" id="Calque_1" xmlns="http://www.w3.org/2000/svg" xmlns:xlink="http://www.w3.org/1999/xlink" x="0px" y="0px"
	 viewBox="0 0 519.82 232.3" style="enable-background:new 0 0 519.82 232.3;" xml:space="preserve">
<style type="text/css">
	.st0{fill:#161615;}
</style>
<g id="LOGO" transform="translate(-181.259 -668.821)">
	<path id="Tracé_46" class="st0" d="M338.75,871.86c-1.76-0.79-3.67-1.18-5.59-1.14h-12.79v29.96h1.34v-10.46h11.44
		c1.93,0.03,3.84-0.36,5.59-1.16c1.58-0.72,2.92-1.88,3.87-3.33c0.97-1.58,1.46-3.4,1.41-5.26c0.05-1.86-0.43-3.69-1.41-5.27
		C341.68,873.73,340.34,872.57,338.75,871.86z M340.18,886.88c-1.64,1.39-3.98,2.08-7.02,2.08h-11.44v-16.99h11.44
		c3.04,0,5.38,0.7,7.02,2.1s2.46,3.53,2.46,6.39C342.64,883.35,341.82,885.49,340.18,886.88L340.18,886.88z"/>
	<path id="Tracé_47" class="st0" d="M370.54,884.93h-21.15v-14.22h-1.34v29.96h1.34v-14.49h21.15v14.49h1.35v-29.96h-1.34
		L370.54,884.93z"/>
	<path id="Tracé_48" class="st0" d="M398.91,872.17c-4.66-2.53-10.29-2.53-14.96,0c-2.21,1.27-4.02,3.13-5.23,5.37
		c-2.56,5.14-2.56,11.18,0,16.31c1.21,2.24,3.02,4.1,5.23,5.37c4.66,2.53,10.29,2.53,14.96,0c2.2-1.27,4-3.13,5.21-5.37
		c2.56-5.14,2.56-11.18,0-16.31C402.91,875.3,401.11,873.45,398.91,872.17z M403.02,893.28c-1.02,2.03-2.61,3.71-4.58,4.83
		c-4.41,2.23-9.61,2.23-14.02,0c-1.98-1.12-3.58-2.8-4.61-4.83c-2.18-4.83-2.18-10.36,0-15.18c1.03-2.02,2.63-3.69,4.61-4.8
		c4.4-2.24,9.61-2.24,14.02,0c1.97,1.11,3.56,2.78,4.58,4.8C405.2,882.92,405.2,888.45,403.02,893.28z"/>
	<path id="Tracé_49" class="st0" d="M421.19,870.72h-12.92v1.25h12.92v28.7h1.34v-28.7h12.92v-1.25H421.19z"/>
	<path id="Tracé_50" class="st0" d="M459.8,872.17c-4.66-2.53-10.29-2.53-14.95,0c-2.21,1.27-4.02,3.13-5.23,5.37
		c-2.56,5.14-2.56,11.18,0,16.31c1.21,2.24,3.02,4.1,5.23,5.37c4.66,2.53,10.29,2.53,14.95,0c2.2-1.27,4-3.13,5.21-5.37
		c2.56-5.14,2.56-11.18,0-16.31C463.8,875.3,462,873.44,459.8,872.17z M463.91,893.28c-1.02,2.03-2.61,3.71-4.58,4.83
		c-4.41,2.23-9.61,2.23-14.02,0c-1.98-1.12-3.58-2.8-4.61-4.83c-2.18-4.83-2.18-10.36,0-15.18c1.03-2.02,2.63-3.69,4.61-4.8
		c4.4-2.24,9.61-2.24,14.02,0c1.97,1.11,3.56,2.78,4.58,4.8C466.09,882.92,466.09,888.45,463.91,893.28z"/>
	<path id="Tracé_51" class="st0" d="M491.28,871.57c-2.01-0.88-4.18-1.33-6.37-1.3c-2.59-0.04-5.13,0.61-7.38,1.9
		c-2.18,1.27-3.96,3.13-5.14,5.37c-2.5,5.15-2.5,11.16,0,16.31c1.18,2.24,2.96,4.1,5.14,5.37c2.24,1.28,4.79,1.94,7.38,1.9
		c1.58,0,3.15-0.22,4.67-0.65c1.51-0.42,2.92-1.17,4.11-2.19c1.26-1.11,2.19-2.56,2.66-4.18h0.13v6.57h1.12v-14.22h-14.17v1.25
		h12.83v1.97c0.07,1.95-0.41,3.87-1.36,5.57c-0.92,1.51-2.28,2.7-3.91,3.4c-1.92,0.81-3.99,1.19-6.08,1.14
		c-2.41,0.06-4.79-0.52-6.91-1.67c-1.95-1.12-3.53-2.8-4.52-4.83c-2.12-4.84-2.12-10.34,0-15.18c0.99-2.01,2.56-3.69,4.52-4.8
		c2.11-1.16,4.5-1.74,6.91-1.68c3.55,0,6.32,0.82,8.32,2.46c2,1.65,3.12,4.15,3,6.75v0.45h1.39v-0.45c0.04-2-0.56-3.96-1.72-5.59
		C494.7,873.63,493.11,872.36,491.28,871.57z"/>
	<path id="Tracé_52" class="st0" d="M519.26,888.89c-0.58-0.56-1.3-0.97-2.08-1.18v-0.14c1.7,0.03,3.39-0.31,4.94-1.01
		c1.39-0.63,2.58-1.62,3.44-2.88c0.87-1.33,1.32-2.89,1.28-4.47c0.05-1.62-0.41-3.22-1.3-4.58c-0.89-1.28-2.12-2.29-3.55-2.91
		c-1.62-0.69-3.36-1.04-5.12-1.01h-13.68v29.96h1.34v-12.97h7.51c1.19-0.03,2.38,0.11,3.53,0.43c0.87,0.25,1.67,0.68,2.37,1.25
		c0.71,0.61,1.31,1.32,1.79,2.12l5.95,9.16h1.53l-6.26-9.75C520.46,890.19,519.9,889.5,519.26,888.89z M504.53,886.45v-14.48h12.34
		c2.26-0.14,4.5,0.49,6.35,1.79c2.98,3.03,2.98,7.89,0,10.91c-1.85,1.3-4.09,1.93-6.35,1.79L504.53,886.45z"/>
	<path id="Tracé_53" class="st0" d="M542.76,870.72l-13.77,29.95h1.43l4.59-9.93h17.25l4.63,9.93h1.43l-13.77-29.95H542.76z
		 M551.67,889.5h-16.09l6.41-13.86l1.52-3.48h0.14l1.56,3.48L551.67,889.5z"/>
	<path id="Tracé_54" class="st0" d="M580.27,871.86c-1.76-0.79-3.66-1.18-5.59-1.14h-12.79v29.96h1.34v-10.46h11.45
		c1.93,0.03,3.84-0.36,5.59-1.16c1.58-0.72,2.92-1.88,3.87-3.33c0.97-1.58,1.46-3.4,1.41-5.26c0.05-1.86-0.43-3.69-1.41-5.27
		C583.2,873.73,581.85,872.57,580.27,871.86z M581.7,886.88c-1.64,1.39-3.98,2.08-7.02,2.08h-11.45v-16.99h11.45
		c3.04,0,5.38,0.7,7.02,2.1s2.46,3.53,2.46,6.39C584.16,883.35,583.34,885.49,581.7,886.88L581.7,886.88z"/>
	<path id="Tracé_55" class="st0" d="M612.06,884.93h-21.15v-14.22h-1.34v29.96h1.34v-14.49h21.15v14.49h1.34v-29.96h-1.34V884.93z"
		/>
	<path id="Tracé_56" class="st0" d="M620.33,870.72h-0.67v29.96h21.42v-1.25H621v-13.19h19.4v-1.25H621v-13.01h20.07v-1.25
		L620.33,870.72L620.33,870.72z"/>
	<g id="Groupe_11" transform="translate(181.259 668.821)">
		<path id="Tracé_57" class="st0" d="M251.66,86.52H240.4V48.23h17.35l21.73,41.87h18.26l-0.06-3.58h-7.07l-19.08-36.7l-8.48-2.52
			l0.53-2.52l0.8-0.13c12.45-1.45,21.73-10.6,21.73-21.33c0-15.1-10.2-23.32-32.33-23.32h-36.7v3.58h5.3l6.1,5.3v72.35l-6.1,5.3
			h-5.3v3.58h34.58L251.66,86.52z M240.4,4.5h12.72c14.84,0.13,20.54,5.3,20.54,19.61c0,14.44-7.68,19.61-20.14,19.61H240.4V4.5z"/>
		<path id="Tracé_58" class="st0" d="M340.71,3.11V0.47h-14.58l-16.16,16.83l1.86,1.46L340.71,3.11z"/>
		<path id="Tracé_59" class="st0" d="M324.94,91.89c11.4,0,19.75-7.02,23.72-19.88l-3.58-1.19c-2.79,8.08-9.27,13.92-16.17,13.92
			c-11.66,0-20.14-7.82-20.14-28.35v-2.26h35.78l1.72-2.91c1.19-14.45-7.29-24.25-21.2-24.25c-15.64,0-27.42,13.65-27.42,33.12
			C297.65,76.52,306.52,91.89,324.94,91.89z M324.41,30.14c10.6,0,12.72,16.56,11.4,19.61v0.79h-26.64
			C310.63,38.36,316.86,30.14,324.41,30.14L324.41,30.14z"/>
		<path id="Tracé_60" class="st0" d="M185.23,138.25c0-13.25-6.36-21.73-20.27-21.73c-14.18,0-22.66,10.2-20.4,21.47l10.34-2.26
			c-1.06-9.8,3.31-16.03,10.2-16.03s9.54,5.17,9.54,21.47v3.18c-22,0.13-35.51,7.68-35.51,21.47c0,9.67,8.48,15.64,16.56,15.64
			c10.6,0,16.03-8.08,18.29-12.06h2.65v10.74h17.09v-3.58h-8.48L185.23,138.25z M174.63,148.58c0,10.99-2.52,25.57-15.77,25.57
			c-4.64,0-8.61-3.58-8.61-9.41c0-10.07,9.94-16.56,24.38-16.56L174.63,148.58z"/>
		<path id="Tracé_61" class="st0" d="M196.73,126.72v36.04c0,14.97,10.07,18.68,18.15,18.68c10.6,0,16.83-8.08,19.61-15.24
			c0.13-0.27,0.13-0.53,0.27-0.79h2.39v14.71h15.29l0.02-3.58h-7.36v-58.7h-22v3.58h5.3l6.09,5.3v15.63
			c0,16.7-3.71,32.86-16.7,32.86c-6.89,0-10.47-6.1-10.47-14.45v-42.93h-22v3.58h5.3L196.73,126.72z"/>
		<path id="Tracé_62" class="st0" d="M335.21,169.61h2.66v10.73h39v-3.58h0.09V154.5c0-17.62,1.99-28.22,17.23-28.22h4.03
			c2.89-3.92,6.59-7.17,10.85-9.54h-13.3c-11.4,0-16.3,9.4-18.82,16.3h-2.65v-14.98h-19.34v3.58h5.3l6.1,5.3v44.52l-6.1,5.3h-13.78
			v-38.29c0-13.25-6.36-21.73-20.28-21.73c-14.18,0-22.66,10.2-20.4,21.47l10.33-2.25c-1.06-9.8,3.31-16.03,10.2-16.03
			s9.54,5.17,9.54,21.47v3.18c-21.99,0.13-35.51,7.68-35.51,21.47c0,9.68,8.48,15.64,16.56,15.64
			C327.52,181.66,332.95,173.58,335.21,169.61z M320.1,174.38c-4.63,0-8.61-3.58-8.61-9.41c0-10.07,9.94-16.56,24.38-16.56v0.4
			C335.87,159.8,333.35,174.38,320.1,174.38L320.1,174.38z"/>
		<path id="Tracé_63" class="st0" d="M451.36,67.81h-3.52c-0.05,0.17-0.09,0.36-0.13,0.52c-4.68,13.07-7.18,16.73-9.94,16.73
			c-4.11,0-2.39-6.1,0.4-17.76l4.37-18.15c3.31-13.52,1.85-21.47-9.14-22.4c-6.89-0.53-10.47,3.31-15.64,14.05l-16.96,35.38
			l-2.39-1.33l8.22-25.71c4.37-13.78,1.33-21.47-8.35-22.4c-6.89-0.66-10.47,3.31-15.64,14.05L365.7,76.19l-2.39-1.33l13.25-43.33
			v-3.58h-22.14v3.58h5.3l4.9,5.17l-13.25,53.53h10.6l22.66-47.03c2.65-5.57,5.7-10.2,9.41-10.2c6.49,0,4.37,9.94,2.38,17.89
			l-9.67,39.35h10.47l0.13-0.53l22.39-46.51c2.65-5.57,5.7-10.2,9.41-10.2c7.29,0,4.37,9.94,2.39,17.89l-5.03,20.52
			c-2.25,9.41-2.12,20.14,8.74,20.14c2.11-0.04,4.1-0.95,5.5-2.53v27.05l2.12,4.37c-5.22-2.48-10.92-3.75-16.7-3.71
			c-16.96,0.4-28.09,15.37-28.09,34.58c0,16.56,9.67,30.34,25.04,30.34c8.48,0,14.58-5.03,17.62-11.4l2.65,0.13v9.94h16.43v-3.57
			h-8.48L451.36,67.81z M440.76,150.79c0,12.32-2.52,24.78-14.04,24.78c-11.13,0-16.7-13.78-16.7-27.83
			c0-11.92,4.63-27.83,16.96-27.83c8.88,0,12.32,9.14,13.78,11.4L440.76,150.79z"/>
		<path id="Tracé_64" class="st0" d="M295.17,166.19v-0.03c-0.1-3.55,1.36-7.21,2.84-10.89c-4.18,1.23-7.48,20.2-16.22,20.2
			c-5.98,0-7.27-5.04-7.27-12.18v-41.2h18.13v-4.23h-18.13v-18.3h-2.68l-7.95,11.67v6.62l-13.86,0.07v3.59l8.18-0.1l5.69,4.91v37.23
			c0,12.99,7.17,17.9,16.06,17.9c2.57,0.03,5.08-0.75,7.17-2.23c2.66-1.99,4.74-4.64,6.04-7.69
			C293.96,169.79,294.63,168.01,295.17,166.19z"/>
		<path id="Tracé_65" class="st0" d="M122.35,174.95c-4.11,0-2.52-6.1,0.4-17.76l4.51-18.15c3.18-12.59,0.53-22.53-11.92-22.53
			c-6.1,0-10.86,4.1-15.64,14.18l-16.56,35.25l-2.25-1.19l20.14-71.16v-3.58h-22v3.58h5.17l4.9,5.17l-13.22,53.41l-0.03-0.02
			c-3.58,8.88-13.68,21.39-31.71,21.39c-18.68,0-30.87-20.81-30.87-43.86c0-20.67,9.41-39.09,27.16-39.09
			c15.37,0,22.26,14.71,24.65,30.61h3.58V88.21h-3.58v5.7c-7.13-5.03-15.66-7.67-24.38-7.55C17.89,86.36,0,105.97,0,134.06
			c0,24.11,16.83,46.24,41.47,46.24c14.3,0,24.18-5.69,30.68-13.14l-3.21,12.97h10.6l22-47.04c2.52-5.44,5.7-10.2,10.33-10.2
			c8.48,0,6.23,10.47,4.37,17.89l-5.17,20.53c-2.39,9.41-2.12,20.14,8.74,20.14c6.49,0,8.35-2.63,13.91-18
			c-0.1-3.57,1.37-7.22,2.87-10.88C132.01,156.1,125.13,174.95,122.35,174.95z"/>
		<path id="Tracé_66" class="st0" d="M491.59,25.57v3.59h5.36l5.89,5.06l-13.92,36.61l-1.61,4h-1.21v-7.86l-14.05-37.81h7.9v-3.59
			h-29.45v3.59h5.35l6.16,5.33h0.13l20.34,52.86l-2.28,5.72c-2.81,6.79-6.96,9.59-16.19,9.59h-4.82v10.92h3.21
			c11.51,0,18.2-10.12,21.41-18.51l25.7-65.91h10.31v-3.59L491.59,25.57z"/>
	</g>
</g>
</svg>
